<?xml version="1.0" encoding="utf-8"?>
<!-- Generator: Adobe Illustrator 26.4.0, SVG Export Plug-In . SVG Version: 6.00 Build 0)  -->
<svg version="1.1" xmlns="http://www.w3.org/2000/svg" xmlns:xlink="http://www.w3.org/1999/xlink" x="0px" y="0px"
	 viewBox="0 0 376 50" style="enable-background:new 0 0 376 50;" xml:space="preserve">
<style type="text/css">
	.st0{fill:#666666;}
	.st1{fill:#0081DC;}
	.st2{fill:#81C800;}
	.st3{clip-path:url(#XMLID_00000032623388148192311930000003251850462854168758_);fill:#0085DE;}
	.st4{fill:#FFFFFF;}
	.st5{fill:url(#XMLID_00000156572597404573566820000006581293262449369016_);}
	.st6{fill:url(#XMLID_00000053518788029671366690000013541183077193970820_);}
</style>
<g id="Layer_1">
</g>
<g id="Layer_2">
	<g id="XMLID_27_">
		<g id="Your_Trusted_Source_For_Good_Health">
			<path class="st0" d="M60.29,45.82v-3.44l-3.13-4.68h1.31l1.6,2.45c0.3,0.46,0.57,0.92,0.83,1.37c0.24-0.42,0.54-0.9,0.89-1.43
				l1.57-2.39h1.25l-3.24,4.68v3.44H60.29z"/>
			<path class="st0" d="M67.21,42.88c0-1.09,0.3-1.9,0.91-2.42c0.51-0.44,1.12-0.65,1.85-0.65c0.81,0,1.47,0.27,1.98,0.79
				s0.77,1.26,0.77,2.2c0,0.76-0.11,1.35-0.34,1.79c-0.23,0.43-0.56,0.77-0.99,1.01c-0.43,0.24-0.91,0.36-1.42,0.36
				c-0.82,0-1.49-0.26-2-0.79C67.46,44.63,67.21,43.87,67.21,42.88z M68.23,42.88c0,0.75,0.16,1.32,0.49,1.69
				c0.33,0.38,0.74,0.56,1.24,0.56c0.49,0,0.91-0.19,1.24-0.56c0.33-0.38,0.49-0.95,0.49-1.72c0-0.73-0.17-1.28-0.5-1.65
				c-0.33-0.38-0.74-0.56-1.23-0.56c-0.5,0-0.91,0.19-1.24,0.56S68.23,42.12,68.23,42.88z"/>
			<path class="st0" d="M80.92,45.82v-0.86c-0.46,0.67-1.08,1-1.87,1c-0.35,0-0.67-0.07-0.97-0.2c-0.3-0.13-0.52-0.3-0.67-0.5
				c-0.15-0.2-0.25-0.45-0.31-0.74c-0.04-0.2-0.06-0.51-0.06-0.93v-3.64h1v3.26c0,0.52,0.02,0.87,0.06,1.05
				c0.06,0.26,0.2,0.47,0.4,0.62c0.2,0.15,0.45,0.22,0.75,0.22c0.3,0,0.58-0.08,0.84-0.23c0.26-0.15,0.45-0.36,0.56-0.63
				c0.11-0.26,0.16-0.65,0.16-1.15v-3.15h1v5.88H80.92z"/>
			<path class="st0" d="M86.54,45.82v-5.88h0.9v0.89c0.23-0.42,0.44-0.69,0.63-0.83s0.41-0.2,0.64-0.2c0.34,0,0.68,0.11,1.02,0.32
				l-0.34,0.93c-0.24-0.14-0.49-0.22-0.73-0.22c-0.22,0-0.41,0.07-0.59,0.2c-0.17,0.13-0.3,0.31-0.37,0.55
				c-0.11,0.35-0.17,0.74-0.17,1.16v3.08H86.54z"/>
			<path class="st0" d="M101.82,45.82v-7.16h-2.68V37.7h6.44v0.96h-2.69v7.16H101.82z"/>
			<path class="st0" d="M109.3,45.82v-5.88h0.9v0.89c0.23-0.42,0.44-0.69,0.63-0.83s0.41-0.2,0.64-0.2c0.34,0,0.68,0.11,1.02,0.32
				l-0.34,0.93c-0.24-0.14-0.49-0.22-0.73-0.22c-0.22,0-0.41,0.07-0.59,0.2c-0.17,0.13-0.3,0.31-0.37,0.55
				c-0.11,0.35-0.17,0.74-0.17,1.16v3.08H109.3z"/>
			<path class="st0" d="M120.12,45.82v-0.86c-0.46,0.67-1.08,1-1.87,1c-0.35,0-0.67-0.07-0.97-0.2c-0.3-0.13-0.52-0.3-0.67-0.5
				c-0.15-0.2-0.25-0.45-0.31-0.74c-0.04-0.2-0.06-0.51-0.06-0.93v-3.64h1v3.26c0,0.52,0.02,0.87,0.06,1.05
				c0.06,0.26,0.2,0.47,0.4,0.62c0.2,0.15,0.45,0.22,0.75,0.22c0.3,0,0.58-0.08,0.84-0.23c0.26-0.15,0.45-0.36,0.56-0.63
				c0.11-0.26,0.16-0.65,0.16-1.15v-3.15h1v5.88H120.12z"/>
			<path class="st0" d="M125.35,44.06l0.99-0.15c0.06,0.4,0.21,0.7,0.46,0.91s0.61,0.32,1.06,0.32c0.46,0,0.8-0.09,1.02-0.28
				s0.33-0.41,0.33-0.66c0-0.23-0.1-0.4-0.29-0.53c-0.14-0.09-0.48-0.2-1.02-0.34c-0.73-0.18-1.24-0.34-1.52-0.48
				c-0.28-0.13-0.5-0.32-0.64-0.56s-0.22-0.5-0.22-0.79c0-0.26,0.06-0.5,0.18-0.73c0.12-0.22,0.28-0.41,0.49-0.56
				c0.16-0.11,0.37-0.21,0.63-0.29c0.27-0.08,0.55-0.12,0.86-0.12c0.46,0,0.87,0.07,1.22,0.2c0.35,0.13,0.61,0.31,0.77,0.54
				c0.17,0.23,0.28,0.53,0.34,0.91l-0.97,0.13c-0.04-0.3-0.17-0.54-0.38-0.71s-0.51-0.25-0.9-0.25c-0.46,0-0.78,0.08-0.98,0.23
				s-0.29,0.33-0.29,0.53c0,0.13,0.04,0.25,0.12,0.35c0.08,0.11,0.21,0.2,0.38,0.27c0.1,0.04,0.39,0.12,0.88,0.25
				c0.71,0.19,1.2,0.34,1.48,0.46c0.28,0.12,0.5,0.29,0.66,0.52c0.16,0.23,0.24,0.51,0.24,0.85c0,0.33-0.1,0.65-0.29,0.94
				c-0.19,0.29-0.47,0.52-0.84,0.68c-0.37,0.16-0.78,0.24-1.24,0.24c-0.76,0-1.35-0.16-1.75-0.48
				C125.71,45.16,125.46,44.69,125.35,44.06z"/>
			<path class="st0" d="M136.77,44.93l0.14,0.88c-0.28,0.06-0.53,0.09-0.75,0.09c-0.36,0-0.64-0.06-0.84-0.17
				c-0.2-0.11-0.34-0.26-0.42-0.45s-0.12-0.58-0.12-1.18v-3.38h-0.73v-0.78h0.73v-1.46l0.99-0.6v2.06h1v0.78h-1v3.44
				c0,0.28,0.02,0.47,0.05,0.55c0.04,0.08,0.09,0.15,0.17,0.19c0.08,0.05,0.19,0.07,0.34,0.07
				C136.44,44.97,136.59,44.95,136.77,44.93z"/>
			<path class="st0" d="M144.95,43.92l1.03,0.13c-0.16,0.6-0.46,1.07-0.9,1.4c-0.44,0.33-1,0.5-1.68,0.5
				c-0.86,0-1.54-0.26-2.05-0.79c-0.5-0.53-0.76-1.27-0.76-2.23c0-0.99,0.25-1.76,0.76-2.3c0.51-0.55,1.17-0.82,1.98-0.82
				c0.79,0,1.43,0.27,1.93,0.8c0.5,0.54,0.75,1.29,0.75,2.26c0,0.06,0,0.15-0.01,0.27h-4.39c0.04,0.65,0.22,1.14,0.55,1.48
				c0.33,0.34,0.74,0.51,1.23,0.51c0.37,0,0.68-0.1,0.94-0.29C144.59,44.65,144.8,44.35,144.95,43.92z M141.67,42.31h3.28
				c-0.04-0.49-0.17-0.87-0.38-1.11c-0.32-0.38-0.73-0.58-1.23-0.58c-0.46,0-0.84,0.15-1.15,0.46
				C141.88,41.39,141.71,41.8,141.67,42.31z"/>
			<path class="st0" d="M154.22,45.82v-0.74c-0.37,0.58-0.92,0.88-1.65,0.88c-0.47,0-0.9-0.13-1.29-0.39
				c-0.39-0.26-0.7-0.62-0.91-1.08c-0.22-0.46-0.32-1-0.32-1.6c0-0.59,0.1-1.12,0.29-1.6c0.2-0.48,0.49-0.84,0.88-1.1
				c0.39-0.25,0.83-0.38,1.31-0.38c0.35,0,0.67,0.08,0.95,0.22s0.5,0.34,0.68,0.58V37.7h0.99v8.12H154.22z M151.07,42.88
				c0,0.75,0.16,1.32,0.48,1.69s0.69,0.56,1.12,0.56c0.44,0,0.81-0.18,1.11-0.53s0.46-0.9,0.46-1.63c0-0.8-0.16-1.4-0.47-1.77
				c-0.31-0.38-0.69-0.56-1.15-0.56c-0.44,0-0.81,0.18-1.11,0.54C151.22,41.53,151.07,42.1,151.07,42.88z"/>
			<path class="st0" d="M165.98,43.21l1.01-0.09c0.05,0.41,0.16,0.74,0.34,1c0.18,0.26,0.45,0.47,0.82,0.63
				c0.37,0.16,0.78,0.24,1.25,0.24c0.41,0,0.77-0.06,1.09-0.18c0.31-0.12,0.55-0.29,0.7-0.5s0.23-0.44,0.23-0.7
				c0-0.25-0.07-0.48-0.22-0.67c-0.15-0.19-0.39-0.35-0.73-0.48c-0.22-0.08-0.7-0.22-1.45-0.4c-0.75-0.18-1.27-0.35-1.57-0.51
				c-0.39-0.2-0.68-0.46-0.87-0.76c-0.19-0.3-0.29-0.64-0.29-1.01c0-0.41,0.12-0.79,0.35-1.15c0.23-0.36,0.57-0.63,1.02-0.81
				c0.45-0.18,0.94-0.28,1.49-0.28c0.6,0,1.13,0.1,1.59,0.29c0.46,0.19,0.81,0.48,1.06,0.86c0.25,0.38,0.38,0.8,0.4,1.28l-1.03,0.08
				c-0.06-0.51-0.24-0.9-0.56-1.16c-0.32-0.26-0.79-0.39-1.42-0.39c-0.65,0-1.12,0.12-1.42,0.36s-0.45,0.53-0.45,0.86
				c0,0.29,0.1,0.53,0.32,0.72c0.21,0.19,0.75,0.38,1.62,0.58c0.87,0.2,1.47,0.37,1.8,0.52c0.47,0.22,0.82,0.49,1.05,0.83
				s0.34,0.72,0.34,1.15c0,0.43-0.12,0.84-0.37,1.22c-0.25,0.38-0.6,0.68-1.07,0.89c-0.46,0.21-0.98,0.32-1.56,0.32
				c-0.73,0-1.35-0.11-1.85-0.32c-0.5-0.21-0.89-0.54-1.17-0.97C166.14,44.24,165.99,43.75,165.98,43.21z"/>
			<path class="st0" d="M176.59,42.88c0-1.09,0.3-1.9,0.91-2.42c0.51-0.44,1.12-0.65,1.85-0.65c0.81,0,1.47,0.27,1.98,0.79
				s0.77,1.26,0.77,2.2c0,0.76-0.11,1.35-0.34,1.79c-0.23,0.43-0.56,0.77-0.99,1.01c-0.43,0.24-0.91,0.36-1.42,0.36
				c-0.82,0-1.49-0.26-2-0.79C176.84,44.63,176.59,43.87,176.59,42.88z M177.61,42.88c0,0.75,0.16,1.32,0.49,1.69
				c0.33,0.38,0.74,0.56,1.24,0.56c0.49,0,0.91-0.19,1.24-0.56c0.33-0.38,0.49-0.95,0.49-1.72c0-0.73-0.17-1.28-0.5-1.65
				c-0.33-0.38-0.74-0.56-1.23-0.56c-0.5,0-0.91,0.19-1.24,0.56S177.61,42.12,177.61,42.88z"/>
			<path class="st0" d="M190.3,45.82v-0.86c-0.46,0.67-1.08,1-1.87,1c-0.35,0-0.67-0.07-0.97-0.2c-0.3-0.13-0.52-0.3-0.67-0.5
				c-0.15-0.2-0.25-0.45-0.31-0.74c-0.04-0.2-0.06-0.51-0.06-0.93v-3.64h1v3.26c0,0.52,0.02,0.87,0.06,1.05
				c0.06,0.26,0.2,0.47,0.4,0.62c0.2,0.15,0.45,0.22,0.75,0.22c0.3,0,0.58-0.08,0.84-0.23c0.26-0.15,0.45-0.36,0.56-0.63
				c0.11-0.26,0.16-0.65,0.16-1.15v-3.15h1v5.88H190.3z"/>
			<path class="st0" d="M195.92,45.82v-5.88h0.9v0.89c0.23-0.42,0.44-0.69,0.63-0.83s0.41-0.2,0.64-0.2c0.34,0,0.68,0.11,1.02,0.32
				l-0.34,0.93c-0.24-0.14-0.49-0.22-0.73-0.22c-0.22,0-0.41,0.07-0.59,0.2c-0.17,0.13-0.3,0.31-0.37,0.55
				c-0.11,0.35-0.17,0.74-0.17,1.16v3.08H195.92z"/>
			<path class="st0" d="M206.72,43.66l0.98,0.13c-0.11,0.68-0.38,1.21-0.82,1.59c-0.44,0.38-0.98,0.57-1.63,0.57
				c-0.8,0-1.45-0.26-1.94-0.79c-0.49-0.53-0.73-1.28-0.73-2.26c0-0.63,0.11-1.19,0.32-1.67c0.21-0.48,0.53-0.83,0.96-1.07
				s0.9-0.36,1.4-0.36c0.64,0,1.16,0.16,1.57,0.48c0.41,0.32,0.67,0.78,0.78,1.38l-0.97,0.15c-0.09-0.4-0.26-0.69-0.49-0.89
				c-0.23-0.2-0.52-0.3-0.85-0.3c-0.5,0-0.91,0.18-1.22,0.54s-0.47,0.93-0.47,1.71c0,0.79,0.15,1.36,0.45,1.72
				c0.3,0.36,0.7,0.54,1.19,0.54c0.39,0,0.72-0.12,0.98-0.36C206.48,44.53,206.65,44.16,206.72,43.66z"/>
			<path class="st0" d="M215.76,43.92l1.03,0.13c-0.16,0.6-0.46,1.07-0.9,1.4c-0.44,0.33-1,0.5-1.68,0.5
				c-0.86,0-1.54-0.26-2.05-0.79c-0.5-0.53-0.76-1.27-0.76-2.23c0-0.99,0.25-1.76,0.76-2.3c0.51-0.55,1.17-0.82,1.98-0.82
				c0.79,0,1.43,0.27,1.93,0.8c0.5,0.54,0.75,1.29,0.75,2.26c0,0.06,0,0.15-0.01,0.27h-4.39c0.04,0.65,0.22,1.14,0.55,1.48
				c0.33,0.34,0.74,0.51,1.23,0.51c0.37,0,0.68-0.1,0.94-0.29C215.4,44.65,215.6,44.35,215.76,43.92z M212.48,42.31h3.28
				c-0.04-0.49-0.17-0.87-0.38-1.11c-0.32-0.38-0.73-0.58-1.23-0.58c-0.46,0-0.84,0.15-1.15,0.46
				C212.69,41.39,212.52,41.8,212.48,42.31z"/>
			<path class="st0" d="M227.72,45.82V37.7h5.48v0.96h-4.4v2.51h3.81v0.96h-3.81v3.69H227.72z"/>
			<path class="st0" d="M237.27,42.88c0-1.09,0.3-1.9,0.91-2.42c0.51-0.44,1.12-0.65,1.85-0.65c0.81,0,1.47,0.27,1.98,0.79
				s0.77,1.26,0.77,2.2c0,0.76-0.11,1.35-0.34,1.79c-0.23,0.43-0.56,0.77-0.99,1.01c-0.43,0.24-0.91,0.36-1.42,0.36
				c-0.82,0-1.49-0.26-2-0.79C237.53,44.63,237.27,43.87,237.27,42.88z M238.3,42.88c0,0.75,0.16,1.32,0.49,1.69
				c0.33,0.38,0.74,0.56,1.24,0.56c0.49,0,0.91-0.19,1.24-0.56c0.33-0.38,0.49-0.95,0.49-1.72c0-0.73-0.17-1.28-0.5-1.65
				c-0.33-0.38-0.74-0.56-1.23-0.56c-0.5,0-0.91,0.19-1.24,0.56S238.3,42.12,238.3,42.88z"/>
			<path class="st0" d="M247.12,45.82v-5.88h0.9v0.89c0.23-0.42,0.44-0.69,0.63-0.83s0.41-0.2,0.64-0.2c0.34,0,0.68,0.11,1.02,0.32
				l-0.34,0.93c-0.24-0.14-0.49-0.22-0.73-0.22c-0.22,0-0.41,0.07-0.59,0.2c-0.17,0.13-0.3,0.31-0.37,0.55
				c-0.11,0.35-0.17,0.74-0.17,1.16v3.08H247.12z"/>
			<path class="st0" d="M264.34,42.63v-0.95l3.44-0.01v3.01c-0.53,0.42-1.07,0.74-1.63,0.95c-0.56,0.21-1.14,0.32-1.73,0.32
				c-0.8,0-1.52-0.17-2.17-0.51c-0.65-0.34-1.14-0.84-1.48-1.48c-0.33-0.65-0.5-1.37-0.5-2.17c0-0.79,0.17-1.53,0.5-2.21
				c0.33-0.68,0.81-1.19,1.43-1.53c0.62-0.33,1.33-0.5,2.14-0.5c0.59,0,1.12,0.1,1.59,0.29c0.47,0.19,0.85,0.46,1.12,0.79
				c0.27,0.34,0.47,0.78,0.61,1.33l-0.97,0.27c-0.12-0.41-0.27-0.74-0.45-0.97c-0.18-0.24-0.44-0.43-0.78-0.57s-0.71-0.21-1.12-0.21
				c-0.49,0-0.92,0.08-1.27,0.22c-0.36,0.15-0.65,0.35-0.87,0.59s-0.39,0.51-0.51,0.8c-0.21,0.5-0.31,1.05-0.31,1.63
				c0,0.72,0.12,1.33,0.37,1.82c0.25,0.49,0.61,0.85,1.09,1.09c0.48,0.24,0.98,0.35,1.52,0.35c0.46,0,0.92-0.09,1.36-0.27
				c0.44-0.18,0.78-0.37,1.01-0.57v-1.51H264.34z"/>
			<path class="st0" d="M272.04,42.88c0-1.09,0.3-1.9,0.91-2.42c0.51-0.44,1.12-0.65,1.85-0.65c0.81,0,1.47,0.27,1.98,0.79
				s0.77,1.26,0.77,2.2c0,0.76-0.11,1.35-0.34,1.79c-0.23,0.43-0.56,0.77-0.99,1.01c-0.43,0.24-0.91,0.36-1.42,0.36
				c-0.82,0-1.49-0.26-2-0.79C272.29,44.63,272.04,43.87,272.04,42.88z M273.06,42.88c0,0.75,0.16,1.32,0.49,1.69
				c0.33,0.38,0.74,0.56,1.24,0.56c0.49,0,0.91-0.19,1.24-0.56c0.33-0.38,0.49-0.95,0.49-1.72c0-0.73-0.17-1.28-0.5-1.65
				c-0.33-0.38-0.74-0.56-1.23-0.56c-0.5,0-0.91,0.19-1.24,0.56S273.06,42.12,273.06,42.88z"/>
			<path class="st0" d="M281.52,42.88c0-1.09,0.3-1.9,0.91-2.42c0.51-0.44,1.12-0.65,1.85-0.65c0.81,0,1.47,0.27,1.98,0.79
				s0.77,1.26,0.77,2.2c0,0.76-0.11,1.35-0.34,1.79c-0.23,0.43-0.56,0.77-0.99,1.01c-0.43,0.24-0.91,0.36-1.42,0.36
				c-0.82,0-1.49-0.26-2-0.79C281.78,44.63,281.52,43.87,281.52,42.88z M282.55,42.88c0,0.75,0.16,1.32,0.49,1.69
				c0.33,0.38,0.74,0.56,1.24,0.56c0.49,0,0.91-0.19,1.24-0.56c0.33-0.38,0.49-0.95,0.49-1.72c0-0.73-0.17-1.28-0.5-1.65
				c-0.33-0.38-0.74-0.56-1.23-0.56c-0.5,0-0.91,0.19-1.24,0.56S282.55,42.12,282.55,42.88z"/>
			<path class="st0" d="M295.2,45.82v-0.74c-0.37,0.58-0.92,0.88-1.65,0.88c-0.47,0-0.9-0.13-1.29-0.39
				c-0.39-0.26-0.7-0.62-0.91-1.08c-0.22-0.46-0.32-1-0.32-1.6c0-0.59,0.1-1.12,0.29-1.6c0.2-0.48,0.49-0.84,0.88-1.1
				c0.39-0.25,0.83-0.38,1.31-0.38c0.35,0,0.67,0.08,0.95,0.22s0.5,0.34,0.68,0.58V37.7h0.99v8.12H295.2z M292.04,42.88
				c0,0.75,0.16,1.32,0.48,1.69s0.69,0.56,1.12,0.56c0.44,0,0.81-0.18,1.11-0.53s0.46-0.9,0.46-1.63c0-0.8-0.16-1.4-0.47-1.77
				c-0.31-0.38-0.69-0.56-1.15-0.56c-0.44,0-0.81,0.18-1.11,0.54C292.19,41.53,292.04,42.1,292.04,42.88z"/>
			<path class="st0" d="M307.35,45.82V37.7h1.07v3.33h4.22V37.7h1.07v8.12h-1.07v-3.83h-4.22v3.83H307.35z"/>
			<path class="st0" d="M322.59,43.92l1.03,0.13c-0.16,0.6-0.46,1.07-0.9,1.4c-0.44,0.33-1,0.5-1.68,0.5
				c-0.86,0-1.54-0.26-2.05-0.79c-0.5-0.53-0.76-1.27-0.76-2.23c0-0.99,0.25-1.76,0.76-2.3c0.51-0.55,1.17-0.82,1.98-0.82
				c0.79,0,1.43,0.27,1.93,0.8c0.5,0.54,0.75,1.29,0.75,2.26c0,0.06,0,0.15-0.01,0.27h-4.39c0.04,0.65,0.22,1.14,0.55,1.48
				c0.33,0.34,0.74,0.51,1.23,0.51c0.37,0,0.68-0.1,0.94-0.29C322.23,44.65,322.43,44.35,322.59,43.92z M319.31,42.31h3.28
				c-0.04-0.49-0.17-0.87-0.38-1.11c-0.32-0.38-0.73-0.58-1.23-0.58c-0.46,0-0.84,0.15-1.15,0.46
				C319.52,41.39,319.35,41.8,319.31,42.31z"/>
			<path class="st0" d="M331.88,45.09c-0.37,0.31-0.72,0.54-1.07,0.66c-0.34,0.13-0.71,0.19-1.1,0.19c-0.65,0-1.14-0.16-1.49-0.47
				c-0.35-0.32-0.52-0.72-0.52-1.21c0-0.29,0.07-0.55,0.2-0.79c0.13-0.24,0.3-0.43,0.52-0.57c0.21-0.14,0.45-0.25,0.72-0.33
				c0.2-0.05,0.49-0.1,0.89-0.15c0.8-0.1,1.4-0.21,1.78-0.34c0-0.14,0.01-0.22,0.01-0.26c0-0.41-0.09-0.69-0.28-0.86
				c-0.25-0.23-0.63-0.34-1.14-0.34c-0.47,0-0.81,0.08-1.04,0.25c-0.22,0.16-0.39,0.46-0.5,0.87l-0.97-0.13
				c0.09-0.42,0.23-0.75,0.44-1.01c0.2-0.26,0.5-0.45,0.88-0.59c0.38-0.14,0.83-0.21,1.33-0.21c0.5,0,0.91,0.06,1.22,0.18
				c0.31,0.12,0.54,0.27,0.69,0.45c0.15,0.18,0.25,0.41,0.31,0.68c0.03,0.17,0.05,0.48,0.05,0.92v1.33c0,0.93,0.02,1.51,0.06,1.76
				s0.13,0.48,0.25,0.71h-1.04C331.98,45.61,331.91,45.37,331.88,45.09z M331.8,42.87c-0.36,0.15-0.9,0.27-1.63,0.38
				c-0.41,0.06-0.7,0.13-0.87,0.2s-0.3,0.18-0.39,0.32c-0.09,0.14-0.14,0.3-0.14,0.47c0,0.27,0.1,0.49,0.3,0.66
				c0.2,0.18,0.5,0.27,0.88,0.27c0.38,0,0.73-0.08,1.02-0.25c0.3-0.17,0.52-0.4,0.66-0.69c0.11-0.23,0.16-0.56,0.16-1V42.87z"/>
			<path class="st0" d="M337.51,45.82V37.7h1v8.12H337.51z"/>
			<path class="st0" d="M345.4,44.93l0.14,0.88c-0.28,0.06-0.53,0.09-0.75,0.09c-0.36,0-0.64-0.06-0.84-0.17
				c-0.2-0.11-0.34-0.26-0.42-0.45s-0.12-0.58-0.12-1.18v-3.38h-0.73v-0.78h0.73v-1.46l0.99-0.6v2.06h1v0.78h-1v3.44
				c0,0.28,0.02,0.47,0.05,0.55c0.04,0.08,0.09,0.15,0.17,0.19c0.08,0.05,0.19,0.07,0.34,0.07
				C345.07,44.97,345.22,44.95,345.4,44.93z"/>
			<path class="st0" d="M349.55,45.82V37.7h1v2.91c0.47-0.54,1.05-0.81,1.76-0.81c0.44,0,0.81,0.09,1.14,0.26
				c0.32,0.17,0.55,0.41,0.69,0.71c0.14,0.3,0.21,0.74,0.21,1.32v3.73h-1v-3.73c0-0.5-0.11-0.86-0.32-1.09
				c-0.22-0.23-0.52-0.34-0.92-0.34c-0.3,0-0.57,0.08-0.83,0.23c-0.26,0.15-0.45,0.36-0.56,0.62c-0.11,0.26-0.17,0.62-0.17,1.09
				v3.22H349.55z"/>
		</g>
		<g id="XMLID_32_">
			<path class="st1" d="M71.01,13.7c-0.94-1.3-1.99-2.26-3.15-2.87c-1.16-0.61-2.48-0.92-3.97-0.92c-2.33,0-4.32,0.86-5.97,2.59
				c-1.65,1.72-2.48,3.77-2.48,6.15c0,2.53,0.82,4.66,2.46,6.4c1.64,1.73,3.64,2.6,5.99,2.6c1.45,0,2.75-0.3,3.92-0.91
				c1.17-0.6,2.18-1.5,3.05-2.7h2.44c-0.96,1.78-2.24,3.16-3.85,4.13c-1.61,0.97-3.42,1.46-5.42,1.46c-3.08,0-5.64-1.05-7.7-3.15
				c-2.05-2.1-3.08-4.72-3.08-7.86c0-1.47,0.28-2.85,0.83-4.17s1.37-2.5,2.44-3.55c1-1,2.11-1.75,3.36-2.26
				c1.24-0.51,2.58-0.77,4.03-0.77c2.08,0,3.95,0.51,5.61,1.52c1.66,1.02,2.98,2.45,3.94,4.31H71.01z"/>
			<path class="st1" d="M75.25,21.32c0-2.32,0.79-4.3,2.39-5.95c1.59-1.65,3.47-2.47,5.65-2.47c2.29,0,4.24,0.81,5.86,2.43
				c1.61,1.62,2.42,3.55,2.42,5.79c0,2.36-0.79,4.37-2.37,6.04c-1.58,1.67-3.5,2.5-5.75,2.5c-2.29,0-4.23-0.82-5.81-2.45
				C76.04,25.57,75.25,23.61,75.25,21.32z M77.37,21.29c0,1.82,0.58,3.35,1.74,4.58c1.16,1.23,2.6,1.85,4.33,1.85
				c1.7,0,3.12-0.62,4.27-1.85c1.15-1.23,1.72-2.77,1.72-4.61c0-1.87-0.58-3.4-1.75-4.61c-1.16-1.2-2.64-1.8-4.43-1.8
				c-1.61,0-2.99,0.62-4.15,1.85C77.95,17.94,77.37,19.47,77.37,21.29z"/>
			<path class="st1" d="M93.91,13.4h1.97v1.8c0.62-0.72,1.34-1.25,2.16-1.6c0.82-0.34,1.76-0.52,2.81-0.52
				c1.16,0,2.19,0.22,3.1,0.65s1.62,1.05,2.15,1.85c0.36,0.57,0.62,1.23,0.78,1.99s0.24,1.88,0.24,3.37v8.26h-2v-8.85
				c0-1.87-0.36-3.22-1.07-4.07c-0.71-0.84-1.86-1.26-3.43-1.26c-0.92,0-1.73,0.18-2.42,0.55c-0.69,0.37-1.24,0.9-1.65,1.59
				c-0.25,0.43-0.42,0.92-0.52,1.47s-0.15,1.51-0.15,2.88v7.69h-1.97V13.4z"/>
			<path class="st1" d="M109.3,24.24h2.08v0.06c0,0.99,0.28,1.8,0.85,2.45c0.57,0.65,1.26,0.97,2.1,0.97c0.8,0,1.46-0.25,1.98-0.75
				c0.53-0.5,0.79-1.13,0.79-1.88c0-0.76-0.21-1.37-0.62-1.82c-0.42-0.46-1.17-0.89-2.26-1.29c-1.75-0.62-2.9-1.26-3.43-1.91
				c-0.54-0.65-0.8-1.52-0.8-2.62c0-1.24,0.45-2.28,1.34-3.15c0.9-0.86,1.98-1.29,3.25-1.29c1.35,0,2.42,0.38,3.22,1.15
				c0.79,0.77,1.22,1.83,1.28,3.2h-2.17c-0.05-0.75-0.29-1.33-0.71-1.74c-0.43-0.41-1.01-0.62-1.75-0.62
				c-0.66,0-1.21,0.22-1.65,0.67c-0.44,0.45-0.66,1-0.66,1.66c0,0.47,0.09,0.86,0.27,1.19c0.18,0.32,0.48,0.61,0.91,0.87
				c0.38,0.24,0.94,0.47,1.67,0.69c0.73,0.22,1.22,0.38,1.47,0.49c0.99,0.42,1.71,0.98,2.18,1.68c0.46,0.7,0.7,1.59,0.7,2.67
				c0,1.36-0.47,2.49-1.42,3.38c-0.95,0.89-2.15,1.34-3.61,1.34c-1.48,0-2.68-0.49-3.58-1.46C109.82,27.2,109.35,25.89,109.3,24.24z
				"/>
			<path class="st1" d="M121.67,13.4h2v8.39c0,2.16,0.35,3.68,1.05,4.58c0.7,0.9,1.85,1.34,3.45,1.34c0.91,0,1.71-0.18,2.4-0.55
				c0.69-0.37,1.25-0.9,1.67-1.6c0.24-0.41,0.41-0.9,0.52-1.46c0.11-0.56,0.16-1.54,0.16-2.92V13.4h2.03v15.81h-2.03V27.5
				c-0.61,0.75-1.3,1.29-2.06,1.62c-0.76,0.34-1.67,0.5-2.74,0.5c-2.28,0-3.92-0.62-4.93-1.85s-1.51-3.27-1.51-6.13V13.4z"/>
			<path class="st1" d="M150.54,15.87c0.64-0.91,1.44-1.6,2.39-2.08c0.95-0.47,2.02-0.71,3.2-0.71c2.15,0,3.71,0.64,4.69,1.93
				c0.98,1.29,1.47,3.36,1.47,6.22v7.98h-1.94v-8.39c0-2.09-0.35-3.58-1.04-4.46c-0.69-0.89-1.82-1.33-3.38-1.33
				c-0.9,0-1.69,0.18-2.38,0.55c-0.69,0.37-1.23,0.9-1.63,1.59c-0.24,0.43-0.41,0.92-0.52,1.47c-0.11,0.55-0.16,1.51-0.16,2.88v7.69
				h-1.91v-8.85c0-1.82-0.37-3.16-1.11-4.03c-0.74-0.87-1.87-1.3-3.39-1.3c-0.92,0-1.73,0.18-2.42,0.55
				c-0.69,0.37-1.24,0.9-1.65,1.59c-0.25,0.43-0.42,0.92-0.52,1.47s-0.15,1.51-0.15,2.88v7.69h-2V13.4h2v1.8
				c0.6-0.7,1.31-1.23,2.13-1.58c0.82-0.35,1.75-0.53,2.78-0.53c1.2,0,2.29,0.25,3.28,0.75S150.03,15.02,150.54,15.87z"/>
			<path class="st1" d="M181.01,21.95h-14.27c0.12,1.72,0.75,3.11,1.87,4.17c1.12,1.06,2.52,1.59,4.2,1.59
				c1.19,0,2.26-0.31,3.2-0.92c0.95-0.62,1.68-1.47,2.2-2.57h2.3c-0.73,1.75-1.75,3.09-3.07,4.03c-1.32,0.94-2.84,1.4-4.58,1.4
				c-2.3,0-4.24-0.82-5.83-2.46s-2.39-3.61-2.39-5.91c0-2.4,0.78-4.39,2.33-5.96s3.55-2.36,5.97-2.36c2.38,0,4.31,0.82,5.81,2.45
				c1.5,1.63,2.25,3.76,2.25,6.38V21.95z M178.77,20.19c-0.38-1.76-1.09-3.08-2.11-3.97c-1.03-0.89-2.36-1.33-4.01-1.33
				c-1.53,0-2.83,0.48-3.89,1.43c-1.06,0.96-1.71,2.25-1.95,3.87H178.77z"/>
			<path class="st1" d="M185.33,29.21h-2.05V13.4h1.91v1.83c0.5-0.7,1.04-1.21,1.63-1.54c0.59-0.33,1.28-0.5,2.06-0.52l0.01,2.2
				c-1.27,0.12-2.19,0.5-2.74,1.14c-0.55,0.65-0.83,1.7-0.83,3.15V29.21z"/>
		</g>
		<g id="XMLID_31_">
			<path class="st2" d="M197.82,20.66v8.33h-4.01V8.5h4.01v8.3h6.59V8.5h4.01v20.49h-4.01v-8.33H197.82z"/>
			<path class="st2" d="M214.52,22.39c0.12,1.12,0.56,2,1.33,2.64s1.75,0.96,2.96,0.96c0.81,0,1.53-0.17,2.17-0.51
				c0.64-0.34,1.15-0.81,1.53-1.42h3.88c-0.66,1.69-1.64,3-2.95,3.93c-1.31,0.93-2.82,1.4-4.54,1.4c-1.15,0-2.22-0.2-3.19-0.61
				c-0.97-0.41-1.84-1.01-2.61-1.81c-0.73-0.76-1.3-1.64-1.7-2.64s-0.6-2.02-0.6-3.07c0-1.08,0.19-2.09,0.56-3.05
				s0.92-1.81,1.64-2.57c0.79-0.83,1.68-1.48,2.67-1.93c0.99-0.45,2.02-0.68,3.08-0.68c1.34,0,2.59,0.3,3.76,0.91
				s2.15,1.47,2.97,2.57c0.5,0.67,0.87,1.41,1.1,2.24c0.24,0.83,0.36,1.77,0.36,2.84c0,0.08,0,0.21-0.01,0.39
				c-0.01,0.17-0.01,0.3-0.01,0.39H214.52z M223.06,19.54c-0.31-1.03-0.83-1.82-1.55-2.36c-0.73-0.54-1.64-0.81-2.75-0.81
				c-0.96,0-1.81,0.29-2.58,0.87c-0.76,0.58-1.27,1.35-1.53,2.29H223.06z"/>
			<path class="st2" d="M241.1,28.99v-1.9c-0.43,0.77-1.04,1.34-1.82,1.7c-0.78,0.37-1.79,0.55-3,0.55c-2.29,0-4.2-0.78-5.73-2.34
				c-1.53-1.56-2.3-3.5-2.3-5.82c0-1.09,0.19-2.12,0.58-3.1c0.38-0.98,0.93-1.83,1.65-2.57c0.77-0.82,1.62-1.42,2.56-1.81
				s1.99-0.58,3.17-0.58c1.13,0,2.09,0.19,2.91,0.56c0.81,0.38,1.47,0.94,1.96,1.7v-1.87h3.52v15.48H241.1z M231.93,21.13
				c0,1.3,0.43,2.39,1.3,3.27c0.87,0.88,1.93,1.32,3.17,1.32c1.13,0,2.13-0.44,3-1.32c0.86-0.88,1.29-1.91,1.29-3.1
				c0-1.26-0.43-2.34-1.3-3.24c-0.87-0.9-1.88-1.36-3.05-1.36c-1.22,0-2.26,0.43-3.12,1.29C232.36,18.84,231.93,19.89,231.93,21.13z
				"/>
			<path class="st2" d="M247.76,28.99V8.5h3.52v20.49H247.76z"/>
			<path class="st2" d="M255.59,28.99V16.72h-2.36v-3.21h2.36V8.5h3.6v5.01h2.38v3.21h-2.38v12.27H255.59z"/>
			<path class="st2" d="M266.84,8.5v6.77c0.53-0.7,1.13-1.22,1.81-1.56c0.68-0.34,1.46-0.51,2.33-0.51c1.93,0,3.41,0.59,4.45,1.78
				c1.03,1.19,1.55,2.9,1.55,5.13v8.88h-3.6v-6.82c0-2.12-0.24-3.56-0.71-4.31c-0.47-0.75-1.3-1.13-2.48-1.13
				c-1.2,0-2.06,0.42-2.59,1.27c-0.53,0.85-0.79,2.31-0.79,4.37v6.63h-3.48V8.5H266.84z"/>
		</g>
		<g id="XMLID_30_">
			<path class="st1" d="M280.97,8.5h5.83c1.6,0,2.95,0.16,4.05,0.48c1.09,0.32,2.06,0.83,2.89,1.53c1.17,0.98,2.08,2.19,2.73,3.62
				c0.65,1.43,0.97,2.95,0.97,4.57c0,1.81-0.36,3.46-1.07,4.95s-1.72,2.7-3.03,3.64c-0.86,0.61-1.8,1.05-2.8,1.31
				s-2.55,0.39-4.64,0.39h-4.93V8.5z M282.96,10.46v16.6h4.18c2.61,0,4.62-0.73,6.02-2.2c1.41-1.46,2.11-3.54,2.11-6.22
				c0-1.34-0.24-2.58-0.72-3.71c-0.48-1.13-1.16-2.09-2.05-2.86c-0.67-0.58-1.41-1-2.24-1.25c-0.83-0.25-2.03-0.37-3.6-0.37H282.96z
				"/>
			<path class="st1" d="M301.9,11.7h-1.98V8.5h1.98V11.7z M299.91,28.99V13.51h1.98v15.48H299.91z"/>
			<path class="st1" d="M307.75,30.26c0.3,0.9,0.84,1.6,1.63,2.1c0.79,0.5,1.74,0.75,2.87,0.75c1.76,0,3.18-0.59,4.24-1.76
				c1.06-1.17,1.6-2.74,1.6-4.7v-0.41c-0.75,1.02-1.6,1.79-2.56,2.31c-0.96,0.52-2.01,0.78-3.17,0.78c-2.33,0-4.26-0.78-5.8-2.33
				c-1.54-1.55-2.31-3.49-2.31-5.8c0-2.28,0.76-4.19,2.28-5.74c1.52-1.55,3.4-2.32,5.64-2.32c1.3,0,2.43,0.23,3.38,0.7
				c0.95,0.47,1.79,1.2,2.53,2.2v-2.53h1.94v12.92c0,2.7-0.68,4.81-2.03,6.33c-1.36,1.52-3.23,2.28-5.61,2.28
				c-1.75,0-3.26-0.43-4.52-1.3c-1.26-0.87-2.07-2.03-2.43-3.48H307.75z M306.37,21.13c0,1.81,0.57,3.33,1.72,4.54
				c1.15,1.22,2.54,1.83,4.16,1.83c1.53,0,2.88-0.61,4.05-1.84c1.17-1.22,1.76-2.66,1.76-4.31c0-1.76-0.58-3.27-1.73-4.52
				s-2.51-1.87-4.08-1.87c-1.61,0-3,0.59-4.15,1.78C306.95,17.93,306.37,19.39,306.37,21.13z"/>
			<path class="st1" d="M338.3,21.88h-13.97c0.12,1.68,0.73,3.05,1.83,4.08s2.47,1.56,4.11,1.56c1.16,0,2.21-0.3,3.14-0.9
				s1.65-1.44,2.15-2.52h2.25c-0.71,1.71-1.71,3.03-3,3.94c-1.29,0.92-2.78,1.38-4.48,1.38c-2.25,0-4.16-0.8-5.71-2.41
				c-1.56-1.6-2.34-3.53-2.34-5.78c0-2.35,0.76-4.3,2.29-5.84c1.52-1.54,3.47-2.31,5.85-2.31c2.33,0,4.22,0.8,5.69,2.4
				c1.47,1.6,2.2,3.68,2.2,6.25V21.88z M336.1,20.15c-0.38-1.72-1.06-3.02-2.07-3.89c-1-0.87-2.31-1.31-3.93-1.31
				c-1.5,0-2.77,0.47-3.81,1.4c-1.04,0.94-1.68,2.2-1.91,3.79H336.1z"/>
			<path class="st1" d="M339.59,24.12h2.04v0.06c0,0.97,0.28,1.77,0.83,2.4c0.55,0.63,1.24,0.95,2.05,0.95
				c0.78,0,1.43-0.24,1.94-0.73c0.52-0.49,0.77-1.1,0.77-1.84c0-0.74-0.2-1.34-0.61-1.79c-0.41-0.45-1.15-0.87-2.22-1.27
				c-1.72-0.61-2.84-1.23-3.36-1.87c-0.53-0.64-0.79-1.49-0.79-2.56c0-1.21,0.44-2.24,1.32-3.08c0.88-0.84,1.94-1.27,3.19-1.27
				c1.32,0,2.37,0.38,3.15,1.13s1.2,1.8,1.25,3.14h-2.12c-0.05-0.73-0.28-1.3-0.7-1.7s-0.99-0.61-1.71-0.61
				c-0.65,0-1.19,0.22-1.62,0.65c-0.43,0.44-0.65,0.98-0.65,1.63c0,0.46,0.09,0.85,0.27,1.16c0.18,0.31,0.47,0.6,0.89,0.85
				c0.38,0.23,0.92,0.46,1.64,0.68c0.72,0.22,1.2,0.38,1.44,0.48c0.97,0.41,1.68,0.96,2.13,1.65c0.46,0.69,0.68,1.56,0.68,2.62
				c0,1.33-0.46,2.43-1.39,3.31c-0.93,0.87-2.11,1.31-3.53,1.31c-1.45,0-2.62-0.48-3.5-1.43S339.64,25.74,339.59,24.12z"/>
			<path class="st1" d="M353.14,28.99V15.51h-2.94v-2h2.94V8.5h1.98v5.01h2.94v2h-2.94v13.48H353.14z"/>
		</g>
	</g>
	<g>
		<path class="st0" d="M362.44,15.25V9.83h-2.02V9.1h4.87v0.73h-2.03v5.42H362.44z"/>
		<path class="st0" d="M367.42,15.25V9.1h1.22l1.45,4.35c0.13,0.41,0.23,0.71,0.29,0.91c0.07-0.22,0.18-0.55,0.33-0.98l1.47-4.28
			h1.09v6.14h-0.78v-5.14l-1.79,5.14h-0.73l-1.78-5.23v5.23H367.42z"/>
	</g>
</g>
<g id="Layer_3">
	<g id="XMLID_00000011746427876501419790000004322958850787709348_">
		<circle id="XMLID_00000073701137231021781770000011413884244989904772_" class="st2" cx="27.1" cy="25.3" r="23.56"/>
		<g id="XMLID_00000157272752152445287810000015680528088349063579_">
			<defs>
				<path id="XMLID_00000134966489443644111510000000747767103869722550_" d="M41.88,6.76l-6.36,5.45L22.24,27.54l-8.12,8.99
					l-3.68-2.25L5.12,30.7l-2.35-1.43l-3.58-5.72c0,0-0.72-7.36-0.51-8.69S0.01,8.83,1.34,7.2s6.59-6.23,8.15-6.85
					S25.07-2.92,27.1-2.92s22.17,0,22.17,0l1.4,1.64L41.88,6.76z"/>
			</defs>
			<clipPath id="XMLID_00000049188215540774115750000004745519060154725033_">
				<use xlink:href="#XMLID_00000134966489443644111510000000747767103869722550_"  style="overflow:visible;"/>
			</clipPath>
			
				<circle id="XMLID_00000069383130944835822520000011001492695740038820_" style="clip-path:url(#XMLID_00000049188215540774115750000004745519060154725033_);fill:#0085DE;" cx="27.1" cy="25.3" r="23.56"/>
		</g>
		<circle id="XMLID_00000156574113630504284940000011480022869305391500_" class="st4" cx="12.66" cy="27.54" r="3.17"/>
		<path id="XMLID_00000141417537247167606190000014275481355529967518_" class="st4" d="M41.65,6.76
			c-12.57,6.74-28.23,26.89-28.23,26.89L3.78,28.7l0.15,0.89l0.14,0.7c0.48,1.13,11.75,12.57,11.75,12.57
			c4.5-12.67,26.07-35.9,26.07-35.9L41.65,6.76z"/>
		
			<linearGradient id="XMLID_00000177462341582754895930000014771129415451206326_" gradientUnits="userSpaceOnUse" x1="15.6662" y1="5.5148" x2="20.4489" y2="13.7986">
			<stop  offset="4.975124e-03" style="stop-color:#FFFFFF"/>
			<stop  offset="0.0257" style="stop-color:#F5FAFE"/>
			<stop  offset="0.1694" style="stop-color:#B5DCF5"/>
			<stop  offset="0.3112" style="stop-color:#7EC1EE"/>
			<stop  offset="0.4476" style="stop-color:#51ACE8"/>
			<stop  offset="0.5777" style="stop-color:#2E9BE4"/>
			<stop  offset="0.6996" style="stop-color:#148FE1"/>
			<stop  offset="0.8103" style="stop-color:#0588DF"/>
			<stop  offset="0.8999" style="stop-color:#0085DE"/>
		</linearGradient>
		
			<path id="XMLID_00000045605720207515322280000014088968728125909163_" style="fill:url(#XMLID_00000177462341582754895930000014771129415451206326_);" d="
			M36.16,4.2c-2.61-1.45-8.23-1.99-11.46-1.72C14.72,3.3,4.51,12.88,4.51,22.9c0,0.34-0.02-0.34,0,0L36.16,4.2z"/>
		
			<linearGradient id="XMLID_00000139996836245235638110000001780402942978209205_" gradientUnits="userSpaceOnUse" x1="166.2668" y1="14.677" x2="171.0495" y2="22.9608" gradientTransform="matrix(-0.9272 0.3746 -0.3746 -0.9272 204.7798 -9.1681)">
			<stop  offset="4.975124e-03" style="stop-color:#FFFFFF"/>
			<stop  offset="0.1122" style="stop-color:#E6F4CD"/>
			<stop  offset="0.2414" style="stop-color:#CCE997"/>
			<stop  offset="0.3722" style="stop-color:#B5DF69"/>
			<stop  offset="0.5018" style="stop-color:#A2D643"/>
			<stop  offset="0.6302" style="stop-color:#94D026"/>
			<stop  offset="0.7568" style="stop-color:#89CC11"/>
			<stop  offset="0.8811" style="stop-color:#83C904"/>
			<stop  offset="1" style="stop-color:#81C800"/>
		</linearGradient>
		
			<path id="XMLID_00000105408491355125993080000003871429524725243302_" style="fill:url(#XMLID_00000139996836245235638110000001780402942978209205_);" d="
			M26.61,48.4c2.96,0.37,8.38-1.24,11.27-2.69c8.95-4.5,14.83-17.21,11.07-26.5c-0.13-0.32,0.14,0.31,0,0L26.61,48.4z"/>
	</g>
	<g>
	</g>
	<g>
	</g>
	<g>
	</g>
	<g>
	</g>
	<g>
	</g>
	<g>
	</g>
</g>
</svg>
