<?xml version="1.0" encoding="utf-8"?>
<!-- Generator: Adobe Illustrator 27.8.1, SVG Export Plug-In . SVG Version: 6.00 Build 0)  -->
<svg version="1.1" id="Layer_1" xmlns="http://www.w3.org/2000/svg" xmlns:xlink="http://www.w3.org/1999/xlink" x="0px" y="0px"
	 viewBox="0 0 20 20" style="enable-background:new 0 0 20 20;" xml:space="preserve">
<g>
	<path d="M12.6,17.3c-0.6,1.7-1.4,2.3-2.8,2.3c-1.4,0-2.2-0.7-2.8-2.3c-0.3,0-0.6,0-0.9,0c-1,0-1.9,0-2.9,0c-0.6,0-1.1-0.2-1.4-0.8
		c-0.3-0.6-0.1-1.1,0.3-1.6c0.9-0.9,1.6-2,1.9-3.3c0.1-0.3,0.1-0.5,0.1-0.8c0-1.1-0.1-2.1,0.1-3.2C4.5,5.4,5.8,4,7.8,3.2
		C8,3.1,8.1,3,8.1,2.8c0-0.3,0-0.7,0-1C8.2,0.9,9,0.3,9.8,0.3c0.8,0,1.6,0.6,1.7,1.5c0,0.4,0,0.7,0,1.1c0,0.2,0,0.2,0.2,0.3
		c2,0.7,3.2,2.1,3.6,4.2c0.1,0.4,0.1,0.9,0.1,1.4c0,0.6,0,1.3,0,1.9c0,1.2,0.5,2.3,1.2,3.3c0.2,0.4,0.5,0.7,0.8,1
		c0.4,0.5,0.6,1,0.3,1.6c-0.2,0.6-0.7,0.8-1.4,0.8C15.1,17.3,13.8,17.3,12.6,17.3z M9.8,16.4c2.2,0,4.4,0,6.6,0c0.2,0,0.4,0,0.5-0.2
		c0.1-0.2,0-0.4-0.2-0.6c-0.3-0.4-0.6-0.7-0.9-1.1c-0.9-1.2-1.4-2.6-1.3-4.1c0-0.7,0-1.3,0-2c0-0.6-0.1-1.2-0.3-1.7
		c-0.8-2.2-3.2-3.3-5.5-2.8c-2,0.5-3.3,2-3.5,4c-0.1,0.9,0,1.9,0,2.8c0,0.5-0.1,1-0.2,1.5c-0.3,1.3-1.1,2.4-2,3.3
		c-0.1,0.1-0.2,0.2-0.2,0.3c-0.1,0.3,0.1,0.6,0.5,0.6C5.4,16.4,7.6,16.4,9.8,16.4z M8,17.3c0.1,0.8,1.1,1.5,2,1.4
		c0.8-0.1,1.6-0.8,1.6-1.4C10.4,17.3,9.2,17.3,8,17.3z M10.6,2.9c0-0.3,0-0.6,0-0.8c0-0.1,0-0.2,0-0.2c-0.1-0.4-0.4-0.6-0.7-0.6
		c-0.4,0-0.7,0.2-0.8,0.6c0,0.4,0,0.7,0,1.1C9.5,2.9,10,2.9,10.6,2.9z"/>
</g>
<g>
</g>
<g>
</g>
<g>
</g>
<g>
</g>
<g>
</g>
<g>
</g>
</svg>
